name Walk10.mot
datacolumns 19
datarows 15
range 2.54900000 2.56300000
endheader

                time	   L_ground_force_vx	   L_ground_force_vy	   L_ground_force_vz	   L_ground_force_px	   L_ground_force_py	   L_ground_force_pz	   R_ground_force_vx	   R_ground_force_vy	   R_ground_force_vz	   R_ground_force_px	   R_ground_force_py	   R_ground_force_pz	   L_ground_torque_x	   L_ground_torque_y	   L_ground_torque_z	   R_ground_torque_x	   R_ground_torque_y	   R_ground_torque_z	
          2.54900000	          0.00000000	          0.00000000	          0.00000000	         -0.00000000	          0.00000000	         -0.00000000	         -0.49417298	          1.49910376	          0.89605144	          0.09036192	          0.00000000	          0.01755475	          0.00000000	          0.00000000	          0.00000000	          0.00000000	          0.02470411	          0.00000000	
          2.55000000	          0.00000000	          0.00000000	         -0.00000000	         -0.00000000	          0.00000000	         -0.00000000	         -0.77771478	          0.43755387	          0.83594886	          0.08419721	          0.00000000	          0.01626662	          0.00000000	          0.00000000	          0.00000000	          0.00000000	          0.02429052	          0.00000000	
          2.55100000	          0.00000000	          0.00000000	         -0.00000000	         -0.00000000	          0.00000000	         -0.00000000	         -1.03420987	         -0.53539203	          0.77779760	          0.07823849	          0.00000000	          0.01502654	          0.00000000	          0.00000000	          0.00000000	          0.00000000	          0.02382030	          0.00000000	
          2.55200000	          0.00000000	          0.00000000	         -0.00000000	         -0.00000000	          0.00000000	         -0.00000000	         -1.26498864	         -1.42359090	          0.72165149	          0.07249076	          0.00000000	          0.01383512	          0.00000000	          0.00000000	          0.00000000	          0.00000000	          0.02330005	          0.00000000	
          2.55300000	          0.00000000	          0.00000000	         -0.00000000	         -0.00000000	          0.00000000	         -0.00000000	         -1.47136554	         -2.23089199	          0.66755220	          0.06695780	          0.00000000	          0.01269271	          0.00000000	          0.00000000	          0.00000000	          0.00000000	          0.02273600	          0.00000000	
          2.55400000	          0.00000000	          0.00000000	         -0.00000000	         -0.00000000	          0.00000000	         -0.00000000	         -1.65463547	         -2.96112295	          0.61553013	          0.06164226	          0.00000000	          0.01159948	          0.00000000	          0.00000000	          0.00000000	          0.00000000	          0.02213398	          0.00000000	
          2.55500000	          0.00000000	          0.00000000	         -0.00000000	         -0.00000000	          0.00000000	         -0.00000000	         -1.81607054	         -3.61807724	          0.56560524	          0.05654573	          0.00000000	          0.01055536	          0.00000000	          0.00000000	          0.00000000	          0.00000000	          0.02149951	          0.00000000	
          2.55600000	          0.00000000	          0.00000000	         -0.00000000	         -0.00000000	          0.00000000	         -0.00000000	         -1.95691723	         -4.20550266	          0.51778789	          0.05166886	          0.00000000	          0.00956013	          0.00000000	          0.00000000	          0.00000000	          0.00000000	          0.02083775	          0.00000000	
          2.55700000	          0.00000000	          0.00000000	         -0.00000000	         -0.00000000	          0.00000000	         -0.00000000	         -2.07839380	         -4.72709112	          0.47207957	          0.04701140	          0.00000000	          0.00861340	          0.00000000	          0.00000000	          0.00000000	          0.00000000	          0.02015351	          0.00000000	
          2.55800000	          0.00000000	          0.00000000	         -0.00000000	         -0.00000000	          0.00000000	         -0.00000000	         -2.18168817	         -5.18646937	          0.42847369	          0.04257228	          0.00000000	          0.00771461	          0.00000000	          0.00000000	          0.00000000	          0.00000000	          0.01945129	          0.00000000	
          2.55900000	          0.00000000	          0.00000000	         -0.00000000	         -0.00000000	          0.00000000	         -0.00000000	         -2.26795592	         -5.58719091	          0.38695625	          0.03834973	          0.00000000	          0.00686309	          0.00000000	          0.00000000	          0.00000000	          0.00000000	          0.01873528	          0.00000000	
          2.56000000	          0.00000000	          0.00000000	         -0.00000000	         -0.00000000	          0.00000000	         -0.00000000	         -2.33831876	         -5.93272874	          0.34750658	          0.03434129	          0.00000000	          0.00605804	          0.00000000	          0.00000000	          0.00000000	          0.00000000	          0.01800935	          0.00000000	
          2.56100000	          0.00000000	          0.00000000	         -0.00000000	         -0.00000000	          0.00000000	         -0.00000000	         -2.39386309	         -6.22646910	          0.31009794	          0.03054389	          0.00000000	          0.00529854	          0.00000000	          0.00000000	          0.00000000	          0.00000000	          0.01727708	          0.00000000	
          2.56200000	          0.00000000	          0.00000000	         -0.00000000	         -0.00000000	          0.00000000	         -0.00000000	         -2.43563895	         -6.47170606	          0.27469815	          0.02695394	          0.00000000	          0.00458360	          0.00000000	          0.00000000	          0.00000000	          0.00000000	          0.01654179	          0.00000000	
          2.56300000	          0.00000000	          0.00000000	         -0.00000000	         -0.00000000	          0.00000000	         -0.00000000	         -2.46465915	         -6.67163688	          0.24127018	          0.02356737	          0.00000000	          0.00391212	          0.00000000	          0.00000000	          0.00000000	          0.00000000	          0.01580651	          0.00000000	
